<svg xmlns="http://www.w3.org/2000/svg" width="1200" height="640" viewBox="0 0 1200 640" role="img">
<rect width="1200" height="640" fill="#ffffff"/>
<text x="40.0" y="36.0" font-family="Helvetica, Arial, sans-serif" font-size="22" font-weight="700" fill="#18222d" text-anchor="start">Internal Benchmark: Overall System Comparison</text>
<text x="40.0" y="60.0" font-family="Helvetica, Arial, sans-serif" font-size="13" font-weight="400" fill="#5a6875" text-anchor="start">Expanded 120-document corpus</text>
<text x="40.0" y="108.0" font-family="Helvetica, Arial, sans-serif" font-size="16" font-weight="700" fill="#18222d" text-anchor="start">Heading F1</text>
<line x1="96.0" y1="474.0" x2="556.0" y2="474.0" stroke="#d6dde5" stroke-width="1"/>
<text x="86.0" y="478.0" font-family="Helvetica, Arial, sans-serif" font-size="11" font-weight="400" fill="#5a6875" text-anchor="end">0.0</text>
<line x1="96.0" y1="404.0" x2="556.0" y2="404.0" stroke="#d6dde5" stroke-width="1"/>
<text x="86.0" y="408.0" font-family="Helvetica, Arial, sans-serif" font-size="11" font-weight="400" fill="#5a6875" text-anchor="end">0.2</text>
<line x1="96.0" y1="334.0" x2="556.0" y2="334.0" stroke="#d6dde5" stroke-width="1"/>
<text x="86.0" y="338.0" font-family="Helvetica, Arial, sans-serif" font-size="11" font-weight="400" fill="#5a6875" text-anchor="end">0.4</text>
<line x1="96.0" y1="264.0" x2="556.0" y2="264.0" stroke="#d6dde5" stroke-width="1"/>
<text x="86.0" y="268.0" font-family="Helvetica, Arial, sans-serif" font-size="11" font-weight="400" fill="#5a6875" text-anchor="end">0.6</text>
<line x1="96.0" y1="194.0" x2="556.0" y2="194.0" stroke="#d6dde5" stroke-width="1"/>
<text x="86.0" y="198.0" font-family="Helvetica, Arial, sans-serif" font-size="11" font-weight="400" fill="#5a6875" text-anchor="end">0.8</text>
<line x1="96.0" y1="124.0" x2="556.0" y2="124.0" stroke="#d6dde5" stroke-width="1"/>
<text x="86.0" y="128.0" font-family="Helvetica, Arial, sans-serif" font-size="11" font-weight="400" fill="#5a6875" text-anchor="end">1.0</text>
<line x1="96.0" y1="124.0" x2="96.0" y2="474.0" stroke="#24323f" stroke-width="1.3"/>
<line x1="96.0" y1="474.0" x2="556.0" y2="474.0" stroke="#24323f" stroke-width="1.3"/>
<text x="326.0" y="498.0" font-family="Helvetica, Arial, sans-serif" font-size="12" font-weight="400" fill="#18222d" text-anchor="middle">Overall</text>
<rect x="155.8" y="328.4" width="104.4" height="145.6" fill="#1f4b7a" rx="2" ry="2"/>
<text x="208.0" y="322.4" font-family="Helvetica, Arial, sans-serif" font-size="10" font-weight="400" fill="#5a6875" text-anchor="middle">0.416</text>
<rect x="273.8" y="326.3" width="104.4" height="147.7" fill="#b55d2d" rx="2" ry="2"/>
<text x="326.0" y="320.3" font-family="Helvetica, Arial, sans-serif" font-size="10" font-weight="400" fill="#5a6875" text-anchor="middle">0.422</text>
<rect x="391.8" y="295.9" width="104.4" height="178.2" fill="#2f6b3f" rx="2" ry="2"/>
<text x="444.0" y="289.9" font-family="Helvetica, Arial, sans-serif" font-size="10" font-weight="400" fill="#5a6875" text-anchor="middle">0.509</text>
<text x="620.0" y="108.0" font-family="Helvetica, Arial, sans-serif" font-size="16" font-weight="700" fill="#18222d" text-anchor="start">Anchor assignment accuracy</text>
<line x1="676.0" y1="474.0" x2="1136.0" y2="474.0" stroke="#d6dde5" stroke-width="1"/>
<text x="666.0" y="478.0" font-family="Helvetica, Arial, sans-serif" font-size="11" font-weight="400" fill="#5a6875" text-anchor="end">0.0</text>
<line x1="676.0" y1="404.0" x2="1136.0" y2="404.0" stroke="#d6dde5" stroke-width="1"/>
<text x="666.0" y="408.0" font-family="Helvetica, Arial, sans-serif" font-size="11" font-weight="400" fill="#5a6875" text-anchor="end">0.2</text>
<line x1="676.0" y1="334.0" x2="1136.0" y2="334.0" stroke="#d6dde5" stroke-width="1"/>
<text x="666.0" y="338.0" font-family="Helvetica, Arial, sans-serif" font-size="11" font-weight="400" fill="#5a6875" text-anchor="end">0.4</text>
<line x1="676.0" y1="264.0" x2="1136.0" y2="264.0" stroke="#d6dde5" stroke-width="1"/>
<text x="666.0" y="268.0" font-family="Helvetica, Arial, sans-serif" font-size="11" font-weight="400" fill="#5a6875" text-anchor="end">0.6</text>
<line x1="676.0" y1="194.0" x2="1136.0" y2="194.0" stroke="#d6dde5" stroke-width="1"/>
<text x="666.0" y="198.0" font-family="Helvetica, Arial, sans-serif" font-size="11" font-weight="400" fill="#5a6875" text-anchor="end">0.8</text>
<line x1="676.0" y1="124.0" x2="1136.0" y2="124.0" stroke="#d6dde5" stroke-width="1"/>
<text x="666.0" y="128.0" font-family="Helvetica, Arial, sans-serif" font-size="11" font-weight="400" fill="#5a6875" text-anchor="end">1.0</text>
<line x1="676.0" y1="124.0" x2="676.0" y2="474.0" stroke="#24323f" stroke-width="1.3"/>
<line x1="676.0" y1="474.0" x2="1136.0" y2="474.0" stroke="#24323f" stroke-width="1.3"/>
<text x="906.0" y="498.0" font-family="Helvetica, Arial, sans-serif" font-size="12" font-weight="400" fill="#18222d" text-anchor="middle">Overall</text>
<rect x="735.8" y="365.9" width="104.4" height="108.2" fill="#1f4b7a" rx="2" ry="2"/>
<text x="788.0" y="359.9" font-family="Helvetica, Arial, sans-serif" font-size="10" font-weight="400" fill="#5a6875" text-anchor="middle">0.309</text>
<rect x="853.8" y="316.5" width="104.4" height="157.5" fill="#b55d2d" rx="2" ry="2"/>
<text x="906.0" y="310.5" font-family="Helvetica, Arial, sans-serif" font-size="10" font-weight="400" fill="#5a6875" text-anchor="middle">0.450</text>
<rect x="971.8" y="290.9" width="104.4" height="183.1" fill="#2f6b3f" rx="2" ry="2"/>
<text x="1024.0" y="284.9" font-family="Helvetica, Arial, sans-serif" font-size="10" font-weight="400" fill="#5a6875" text-anchor="middle">0.523</text>
<rect x="180.0" y="556.0" width="14.0" height="14.0" fill="#1f4b7a" rx="2" ry="2"/>
<text x="202.0" y="567.0" font-family="Helvetica, Arial, sans-serif" font-size="12" font-weight="400" fill="#18222d" text-anchor="start">scholar_parser</text>
<rect x="370.0" y="556.0" width="14.0" height="14.0" fill="#b55d2d" rx="2" ry="2"/>
<text x="392.0" y="567.0" font-family="Helvetica, Arial, sans-serif" font-size="12" font-weight="400" fill="#18222d" text-anchor="start">ocr_agent</text>
<rect x="560.0" y="556.0" width="14.0" height="14.0" fill="#2f6b3f" rx="2" ry="2"/>
<text x="582.0" y="567.0" font-family="Helvetica, Arial, sans-serif" font-size="12" font-weight="400" fill="#18222d" text-anchor="start">improved_ocr_agent</text>
</svg>
