<svg xmlns="http://www.w3.org/2000/svg" width="980" height="620" viewBox="0 0 980 620" role="img">
<rect width="980" height="620" fill="#ffffff"/>
<text x="40.0" y="36.0" font-family="Helvetica, Arial, sans-serif" font-size="22" font-weight="700" fill="#18222d" text-anchor="start">olmOCR-Bench: Overall Backend Comparison</text>
<text x="40.0" y="60.0" font-family="Helvetica, Arial, sans-serif" font-size="13" font-weight="400" fill="#5a6875" text-anchor="start">Official benchmark scores with reported confidence intervals</text>
<text x="40.0" y="108.0" font-family="Helvetica, Arial, sans-serif" font-size="16" font-weight="700" fill="#18222d" text-anchor="start">Average score on olmOCR-Bench</text>
<line x1="96.0" y1="464.0" x2="916.0" y2="464.0" stroke="#d6dde5" stroke-width="1"/>
<text x="86.0" y="468.0" font-family="Helvetica, Arial, sans-serif" font-size="11" font-weight="400" fill="#5a6875" text-anchor="end">0</text>
<line x1="96.0" y1="396.0" x2="916.0" y2="396.0" stroke="#d6dde5" stroke-width="1"/>
<text x="86.0" y="400.0" font-family="Helvetica, Arial, sans-serif" font-size="11" font-weight="400" fill="#5a6875" text-anchor="end">20</text>
<line x1="96.0" y1="328.0" x2="916.0" y2="328.0" stroke="#d6dde5" stroke-width="1"/>
<text x="86.0" y="332.0" font-family="Helvetica, Arial, sans-serif" font-size="11" font-weight="400" fill="#5a6875" text-anchor="end">40</text>
<line x1="96.0" y1="260.0" x2="916.0" y2="260.0" stroke="#d6dde5" stroke-width="1"/>
<text x="86.0" y="264.0" font-family="Helvetica, Arial, sans-serif" font-size="11" font-weight="400" fill="#5a6875" text-anchor="end">60</text>
<line x1="96.0" y1="192.0" x2="916.0" y2="192.0" stroke="#d6dde5" stroke-width="1"/>
<text x="86.0" y="196.0" font-family="Helvetica, Arial, sans-serif" font-size="11" font-weight="400" fill="#5a6875" text-anchor="end">80</text>
<line x1="96.0" y1="124.0" x2="916.0" y2="124.0" stroke="#d6dde5" stroke-width="1"/>
<text x="86.0" y="128.0" font-family="Helvetica, Arial, sans-serif" font-size="11" font-weight="400" fill="#5a6875" text-anchor="end">100</text>
<line x1="96.0" y1="124.0" x2="96.0" y2="464.0" stroke="#24323f" stroke-width="1.3"/>
<line x1="96.0" y1="464.0" x2="916.0" y2="464.0" stroke="#24323f" stroke-width="1.3"/>
<text x="506.0" y="488.0" font-family="Helvetica, Arial, sans-serif" font-size="12" font-weight="400" fill="#18222d" text-anchor="middle">Benchmark score</text>
<rect x="202.6" y="294.0" width="139.6" height="170.0" fill="#8c6d1f" rx="2" ry="2"/>
<text x="272.4" y="288.0" font-family="Helvetica, Arial, sans-serif" font-size="10" font-weight="400" fill="#5a6875" text-anchor="middle">50.0%</text>
<line x1="272.4" y1="289.9" x2="272.4" y2="298.1" stroke="#24323f" stroke-width="1.2"/>
<line x1="267.4" y1="289.9" x2="277.4" y2="289.9" stroke="#24323f" stroke-width="1.2"/>
<line x1="267.4" y1="298.1" x2="277.4" y2="298.1" stroke="#24323f" stroke-width="1.2"/>
<rect x="358.3" y="286.2" width="139.6" height="177.8" fill="#5b7c99" rx="2" ry="2"/>
<text x="428.1" y="280.2" font-family="Helvetica, Arial, sans-serif" font-size="10" font-weight="400" fill="#5a6875" text-anchor="middle">52.3%</text>
<line x1="428.1" y1="282.1" x2="428.1" y2="290.3" stroke="#24323f" stroke-width="1.2"/>
<line x1="423.1" y1="282.1" x2="433.1" y2="282.1" stroke="#24323f" stroke-width="1.2"/>
<line x1="423.1" y1="290.3" x2="433.1" y2="290.3" stroke="#24323f" stroke-width="1.2"/>
<rect x="514.1" y="216.5" width="139.6" height="247.5" fill="#2c7a7b" rx="2" ry="2"/>
<text x="583.9" y="210.5" font-family="Helvetica, Arial, sans-serif" font-size="10" font-weight="400" fill="#5a6875" text-anchor="middle">72.8%</text>
<line x1="583.9" y1="212.7" x2="583.9" y2="220.2" stroke="#24323f" stroke-width="1.2"/>
<line x1="578.9" y1="212.7" x2="588.9" y2="212.7" stroke="#24323f" stroke-width="1.2"/>
<line x1="578.9" y1="220.2" x2="588.9" y2="220.2" stroke="#24323f" stroke-width="1.2"/>
<rect x="669.8" y="210.0" width="139.6" height="254.0" fill="#8f2d56" rx="2" ry="2"/>
<text x="739.6" y="204.0" font-family="Helvetica, Arial, sans-serif" font-size="10" font-weight="400" fill="#5a6875" text-anchor="middle">74.7%</text>
<line x1="739.6" y1="206.6" x2="739.6" y2="213.4" stroke="#24323f" stroke-width="1.2"/>
<line x1="734.6" y1="206.6" x2="744.6" y2="206.6" stroke="#24323f" stroke-width="1.2"/>
<line x1="734.6" y1="213.4" x2="744.6" y2="213.4" stroke="#24323f" stroke-width="1.2"/>
<rect x="100.0" y="550.0" width="14.0" height="14.0" fill="#8c6d1f" rx="2" ry="2"/>
<text x="122.0" y="561.0" font-family="Helvetica, Arial, sans-serif" font-size="12" font-weight="400" fill="#18222d" text-anchor="start">qwen_structured</text>
<rect x="290.0" y="550.0" width="14.0" height="14.0" fill="#5b7c99" rx="2" ry="2"/>
<text x="312.0" y="561.0" font-family="Helvetica, Arial, sans-serif" font-size="12" font-weight="400" fill="#18222d" text-anchor="start">qwen_structured_post</text>
<rect x="100.0" y="572.0" width="14.0" height="14.0" fill="#2c7a7b" rx="2" ry="2"/>
<text x="122.0" y="583.0" font-family="Helvetica, Arial, sans-serif" font-size="12" font-weight="400" fill="#18222d" text-anchor="start">svr_ocr_full</text>
<rect x="290.0" y="572.0" width="14.0" height="14.0" fill="#8f2d56" rx="2" ry="2"/>
<text x="312.0" y="583.0" font-family="Helvetica, Arial, sans-serif" font-size="12" font-weight="400" fill="#18222d" text-anchor="start">olmocr2</text>
</svg>
