<svg xmlns="http://www.w3.org/2000/svg" width="1220" height="640" viewBox="0 0 1220 640" role="img">
<rect width="1220" height="640" fill="#ffffff"/>
<text x="40.0" y="36.0" font-family="Helvetica, Arial, sans-serif" font-size="22" font-weight="700" fill="#18222d" text-anchor="start">olmOCR-Bench: Category Breakdown</text>
<text x="40.0" y="60.0" font-family="Helvetica, Arial, sans-serif" font-size="13" font-weight="400" fill="#5a6875" text-anchor="start">Higher is better for every category</text>
<text x="40.0" y="108.0" font-family="Helvetica, Arial, sans-serif" font-size="16" font-weight="700" fill="#18222d" text-anchor="start">Benchmark category scores</text>
<line x1="96.0" y1="494.0" x2="1156.0" y2="494.0" stroke="#d6dde5" stroke-width="1"/>
<text x="86.0" y="498.0" font-family="Helvetica, Arial, sans-serif" font-size="11" font-weight="400" fill="#5a6875" text-anchor="end">0</text>
<line x1="96.0" y1="420.0" x2="1156.0" y2="420.0" stroke="#d6dde5" stroke-width="1"/>
<text x="86.0" y="424.0" font-family="Helvetica, Arial, sans-serif" font-size="11" font-weight="400" fill="#5a6875" text-anchor="end">20</text>
<line x1="96.0" y1="346.0" x2="1156.0" y2="346.0" stroke="#d6dde5" stroke-width="1"/>
<text x="86.0" y="350.0" font-family="Helvetica, Arial, sans-serif" font-size="11" font-weight="400" fill="#5a6875" text-anchor="end">40</text>
<line x1="96.0" y1="272.0" x2="1156.0" y2="272.0" stroke="#d6dde5" stroke-width="1"/>
<text x="86.0" y="276.0" font-family="Helvetica, Arial, sans-serif" font-size="11" font-weight="400" fill="#5a6875" text-anchor="end">60</text>
<line x1="96.0" y1="198.0" x2="1156.0" y2="198.0" stroke="#d6dde5" stroke-width="1"/>
<text x="86.0" y="202.0" font-family="Helvetica, Arial, sans-serif" font-size="11" font-weight="400" fill="#5a6875" text-anchor="end">80</text>
<line x1="96.0" y1="124.0" x2="1156.0" y2="124.0" stroke="#d6dde5" stroke-width="1"/>
<text x="86.0" y="128.0" font-family="Helvetica, Arial, sans-serif" font-size="11" font-weight="400" fill="#5a6875" text-anchor="end">100</text>
<line x1="96.0" y1="124.0" x2="96.0" y2="494.0" stroke="#24323f" stroke-width="1.3"/>
<line x1="96.0" y1="494.0" x2="1156.0" y2="494.0" stroke="#24323f" stroke-width="1.3"/>
<text x="202.0" y="518.0" font-family="Helvetica, Arial, sans-serif" font-size="12" font-weight="400" fill="#18222d" text-anchor="middle">Absent</text>
<rect x="123.6" y="248.7" width="48.1" height="245.3" fill="#5b7c99" rx="2" ry="2"/>
<text x="147.6" y="242.7" font-family="Helvetica, Arial, sans-serif" font-size="10" font-weight="400" fill="#5a6875" text-anchor="middle">66.3%</text>
<rect x="177.9" y="337.5" width="48.1" height="156.5" fill="#2c7a7b" rx="2" ry="2"/>
<text x="202.0" y="331.5" font-family="Helvetica, Arial, sans-serif" font-size="10" font-weight="400" fill="#5a6875" text-anchor="middle">42.3%</text>
<rect x="232.3" y="141.4" width="48.1" height="352.6" fill="#8f2d56" rx="2" ry="2"/>
<text x="256.4" y="135.4" font-family="Helvetica, Arial, sans-serif" font-size="10" font-weight="400" fill="#5a6875" text-anchor="middle">95.3%</text>
<text x="414.0" y="518.0" font-family="Helvetica, Arial, sans-serif" font-size="12" font-weight="400" fill="#18222d" text-anchor="middle">Math</text>
<rect x="335.6" y="327.1" width="48.1" height="166.9" fill="#5b7c99" rx="2" ry="2"/>
<text x="359.6" y="321.1" font-family="Helvetica, Arial, sans-serif" font-size="10" font-weight="400" fill="#5a6875" text-anchor="middle">45.1%</text>
<rect x="389.9" y="178.0" width="48.1" height="316.0" fill="#2c7a7b" rx="2" ry="2"/>
<text x="414.0" y="172.0" font-family="Helvetica, Arial, sans-serif" font-size="10" font-weight="400" fill="#5a6875" text-anchor="middle">85.4%</text>
<rect x="444.3" y="225.8" width="48.1" height="268.2" fill="#8f2d56" rx="2" ry="2"/>
<text x="468.4" y="219.8" font-family="Helvetica, Arial, sans-serif" font-size="10" font-weight="400" fill="#5a6875" text-anchor="middle">72.5%</text>
<text x="626.0" y="518.0" font-family="Helvetica, Arial, sans-serif" font-size="12" font-weight="400" fill="#18222d" text-anchor="middle">Order</text>
<rect x="547.6" y="351.9" width="48.1" height="142.1" fill="#5b7c99" rx="2" ry="2"/>
<text x="571.6" y="345.9" font-family="Helvetica, Arial, sans-serif" font-size="10" font-weight="400" fill="#5a6875" text-anchor="middle">38.4%</text>
<rect x="601.9" y="232.4" width="48.1" height="261.6" fill="#2c7a7b" rx="2" ry="2"/>
<text x="626.0" y="226.4" font-family="Helvetica, Arial, sans-serif" font-size="10" font-weight="400" fill="#5a6875" text-anchor="middle">70.7%</text>
<rect x="656.3" y="240.5" width="48.1" height="253.5" fill="#8f2d56" rx="2" ry="2"/>
<text x="680.4" y="234.5" font-family="Helvetica, Arial, sans-serif" font-size="10" font-weight="400" fill="#5a6875" text-anchor="middle">68.5%</text>
<text x="838.0" y="518.0" font-family="Helvetica, Arial, sans-serif" font-size="12" font-weight="400" fill="#18222d" text-anchor="middle">Present</text>
<rect x="759.6" y="388.9" width="48.1" height="105.1" fill="#5b7c99" rx="2" ry="2"/>
<text x="783.6" y="382.9" font-family="Helvetica, Arial, sans-serif" font-size="10" font-weight="400" fill="#5a6875" text-anchor="middle">28.4%</text>
<rect x="813.9" y="267.6" width="48.1" height="226.4" fill="#2c7a7b" rx="2" ry="2"/>
<text x="838.0" y="261.6" font-family="Helvetica, Arial, sans-serif" font-size="10" font-weight="400" fill="#5a6875" text-anchor="middle">61.2%</text>
<rect x="868.3" y="303.4" width="48.1" height="190.6" fill="#8f2d56" rx="2" ry="2"/>
<text x="892.4" y="297.4" font-family="Helvetica, Arial, sans-serif" font-size="10" font-weight="400" fill="#5a6875" text-anchor="middle">51.5%</text>
<text x="1050.0" y="518.0" font-family="Helvetica, Arial, sans-serif" font-size="12" font-weight="400" fill="#18222d" text-anchor="middle">Table</text>
<rect x="971.6" y="330.1" width="48.1" height="163.9" fill="#5b7c99" rx="2" ry="2"/>
<text x="995.6" y="324.1" font-family="Helvetica, Arial, sans-serif" font-size="10" font-weight="400" fill="#5a6875" text-anchor="middle">44.3%</text>
<rect x="1025.9" y="204.7" width="48.1" height="289.3" fill="#2c7a7b" rx="2" ry="2"/>
<text x="1050.0" y="198.7" font-family="Helvetica, Arial, sans-serif" font-size="10" font-weight="400" fill="#5a6875" text-anchor="middle">78.2%</text>
<rect x="1080.3" y="210.2" width="48.1" height="283.8" fill="#8f2d56" rx="2" ry="2"/>
<text x="1104.4" y="204.2" font-family="Helvetica, Arial, sans-serif" font-size="10" font-weight="400" fill="#5a6875" text-anchor="middle">76.7%</text>
<rect x="270.0" y="576.0" width="14.0" height="14.0" fill="#5b7c99" rx="2" ry="2"/>
<text x="292.0" y="587.0" font-family="Helvetica, Arial, sans-serif" font-size="12" font-weight="400" fill="#18222d" text-anchor="start">qwen_structured_post</text>
<rect x="460.0" y="576.0" width="14.0" height="14.0" fill="#2c7a7b" rx="2" ry="2"/>
<text x="482.0" y="587.0" font-family="Helvetica, Arial, sans-serif" font-size="12" font-weight="400" fill="#18222d" text-anchor="start">svr_ocr_full</text>
<rect x="650.0" y="576.0" width="14.0" height="14.0" fill="#8f2d56" rx="2" ry="2"/>
<text x="672.0" y="587.0" font-family="Helvetica, Arial, sans-serif" font-size="12" font-weight="400" fill="#18222d" text-anchor="start">olmocr2</text>
</svg>
